<svg width="1000" height="1000" viewBox="0 0 1000 1000" xmlns="http://www.w3.org/2000/svg"><defs/><path fill="#010101" d="M 0 0 L 1000 0 L 1000 1000 L 0 1000 Z"/><path fill="#f26122" transform="matrix(0.5175989469786472 0 0 0.5175989469786472 30.777187182762304 46.19533935299972)" d="M 387.13820588927 1011.99958246335 C 385.53820588927 1011.09958246335 384.43820588927 1009.39958246335 384.43820588927 1007.39958246335 L 384.43820588927 987.29958246335 C 375.73820588927 985.09958246335 369.73820588927 977.99958246335 369.73820588927 969.39958246335 C 369.73820588927 953.29958246335 383.43820588927 950.19958246335 383.43820588927 950.19958246335 L 383.43820588927 942.59958246335 L 368.33820588927 930.69958246335 C 366.73820588927 929.39958246335 365.83820588927 926.69958246335 366.43820588927 924.69958246335 L 371.83820588927 906.59958246335 L 357.03820588927 792.99958246335 C 351.63820588927 785.79958246335 348.53820588927 776.79958246335 348.53820588927 767.19958246335 C 348.53820588927 743.29958246335 367.93820588927 723.79958246335 391.93820588927 723.79958246335 C 401.23820588927 723.79958246335 409.73820588927 726.69958246335 416.73820588927 731.69958246335 L 617.93820588927 810.29958246335 L 617.93820588927 791.59958246335 C 617.93820588927 776.89958246335 607.53820588927 758.89958246335 594.83820588927 751.59958246335 L 447.23820588927 666.39958246335 C 434.53820588927 659.09958246335 413.73820588927 659.09958246335 401.03820588927 666.39958246335 L 253.43820588927 751.59958246335 C 240.73820588927 758.89958246335 230.33820588927 776.89958246335 230.33820588927 791.59958246335 L 230.33820588927 961.99958246335 C 230.33820588927 976.69958246335 240.73820588927 994.69958246335 253.43820588927 1001.99958246335 L 387.23820588927 1079.19958246335 L 387.23820588927 1011.99958246335 Z"/><path fill="#f26122" transform="matrix(0.5175989469786472 0 0 0.5175989469786472 30.777187182762304 46.19533935299972)" d="M 557.03820588927 866.29958246335 C 552.93820588927 864.49958246335 551.03820588927 859.79958246335 552.63820588927 855.59958246335 L 553.53820588927 853.29958246335 L 445.83820588927 809.29958246335 C 444.03820588927 810.69958246335 441.73820588927 811.49958246335 439.33820588927 811.49958246335 C 437.93820588927 811.49958246335 436.63820588927 811.19958246335 435.33820588927 810.69958246335 L 424.43820588927 806.19958246335 L 408.33820588927 905.99958246335 L 413.33820588927 925.09958246335 C 413.83820588927 927.09958246335 412.93820588927 929.79958246335 411.23820588927 930.99958246335 L 396.13820588927 942.39958246335 L 396.13820588927 949.79958246335 C 396.13820588927 957.09958246335 384.93820588927 958.79958246335 383.03820588927 960.39958246335 C 378.73820588927 963.99958246335 377.63820588927 975.19958246335 383.53820588927 977.19958246335 C 384.43820588927 977.49958246335 385.23820588927 977.69958246335 386.13820588927 977.89958246335 C 387.13820588927 976.99958246335 388.43820588927 976.39958246335 389.83820588927 976.39958246335 C 391.43820588927 976.39958246335 392.83820588927 977.09958246335 393.83820588927 978.19958246335 C 403.93820588927 975.79958246335 403.63820588927 961.29958246335 403.63820588927 961.29958246335 L 408.13820588927 960.89958246335 C 411.13820588927 977.79958246335 402.53820588927 984.89958246335 395.13820588927 987.09958246335 L 395.13820588927 1007.29958246335 C 395.13820588927 1009.29958246335 394.03820588927 1010.99958246335 392.43820588927 1011.89958246335 L 392.43820588927 1082.19958246335 L 400.83820588927 1087.09958246335 C 413.53820588927 1094.39958246335 434.33820588927 1094.39958246335 447.03820588927 1087.09958246335 L 594.63820588927 1001.89958246335 C 607.33820588927 994.59958246335 617.73820588927 976.59958246335 617.73820588927 961.89958246335 L 617.73820588927 892.59958246335 L 557.03820588927 866.29958246335 Z"/><path fill="#f26122" transform="matrix(0.5175989469786472 0 0 0.5175989469786472 30.777187182762304 46.19533935299972)" d="M 578.53820588927 813.39958246335 L 617.83820588927 829.89958246335 L 617.83820588927 815.99958246335 L 426.53820588927 741.29958246335 C 429.13820588927 744.89958246335 431.33820588927 748.79958246335 432.73820588927 753.09958246335 L 392.33820588927 736.29958246335 C 390.53820588927 735.59958246335 388.73820588927 735.19958246335 386.73820588927 735.19958246335 C 380.73820588927 735.19958246335 375.43820588927 738.79958246335 373.13820588927 744.29958246335 L 362.93820588927 769.29958246335 C 359.83820588927 776.79958246335 363.43820588927 785.39958246335 370.93820588927 788.39958246335 L 411.83820588927 805.39958246335 C 405.83820588927 808.59958246335 398.93820588927 810.39958246335 391.63820588927 810.39958246335 C 380.73820588927 810.39958246335 370.73820588927 806.39958246335 363.13820588927 799.69958246335 L 375.43820588927 893.89958246335 L 375.93820588927 892.39958246335 C 376.53820588927 890.39958246335 378.73820588927 888.79958246335 380.83820588927 888.79958246335 L 400.13820588927 888.79958246335 C 402.23820588927 888.79958246335 404.33820588927 890.39958246335 404.83820588927 892.49958246335 L 405.03820588927 893.19958246335 L 419.43820588927 804.19958246335 L 372.63820588927 784.69958246335 C 367.23820588927 782.49958246335 364.63820588927 776.29958246335 366.83820588927 770.89958246335 L 377.03820588927 745.89958246335 C 378.63820588927 741.89958246335 382.53820588927 739.29958246335 386.83820588927 739.29958246335 C 388.23820588927 739.29958246335 389.53820588927 739.59958246335 390.83820588927 740.09958246335 L 453.63820588927 766.29958246335 C 458.23820588927 768.19958246335 460.73820588927 772.89958246335 460.13820588927 777.59958246335 L 566.83820588927 821.19958246335 L 568.13820588927 817.99958246335 C 569.73820588927 813.69958246335 574.43820588927 811.69958246335 578.53820588927 813.39958246335 Z"/><path id="text" fill="#ececec" transform="matrix(1.401992880668506 0 0 1.401992880668506 302.82474083619536 126.2456846155139)" d="M 70.93990707868 299.56388396006 C 67.70790707868 294.98788396006 66.09190707868 288.37988396006 66.09190707868 279.73988396006 L 66.09190707868 253.62788396006 C 66.09190707868 244.73188396006 67.75590707868 238.02788396006 71.08390707868 233.51588396006 C 74.41190707868 229.00388396006 80.13990707868 226.74788396006 88.26790707868 226.74788396006 C 95.94790707868 226.74788396006 101.45190707868 228.65188396006 104.77990707868 232.45988396006 C 108.10790707868 236.26788396006 109.77190707868 241.91588396006 109.77190707868 249.40388396006 L 109.77190707868 253.43588396006 L 96.23590707868 253.43588396006 L 96.23590707868 249.01988396006 C 96.23590707868 246.20388396006 96.05990707868 243.96388396006 95.70790707868 242.29988396006 C 95.35590707868 240.63588396006 94.61990707868 239.35588396006 93.49990707868 238.45988396006 C 92.37990707868 237.56388396006 90.69990707868 237.11588396006 88.45990707868 237.11588396006 C 86.09190707868 237.11588396006 84.33190707868 237.69188396006 83.17990707868 238.84388396006 C 82.02790707868 239.99588396006 81.27590707868 241.46788396006 80.92390707868 243.25988396006 C 80.57190707868 245.05188396006 80.39590707868 247.38788396006 80.39590707868 250.26788396006 L 80.39590707868 282.81188396006 C 80.39590707868 287.22788396006 80.98790707868 290.52388396006 82.17190707868 292.69988396006 C 83.35590707868 294.87588396006 85.57990707868 295.96388396006 88.84390707868 295.96388396006 C 92.04390707868 295.96388396006 94.26790707868 294.81188396006 95.51590707868 292.50788396006 C 96.76390707868 290.20388396006 97.38790707868 286.74788396006 97.38790707868 282.13988396006 L 97.38790707868 274.84388396006 L 89.03590707868 274.84388396006 L 89.03590707868 265.91588396006 L 110.15590707868 265.91588396006 L 110.15590707868 305.37188396006 L 100.93990707868 305.37188396006 L 99.97990707868 297.78788396006 C 97.54790707868 303.54788396006 93.16390707868 306.42788396006 86.82790707868 306.42788396006 C 79.46790707868 306.42788396006 74.17190707868 304.13988396006 70.93990707868 299.56388396006 Z M 121.00390707868 227.61188396006 L 139.72390707868 227.61188396006 C 147.91590707868 227.61188396006 154.02790707868 229.16388396006 158.05990707868 232.26788396006 C 162.09190707868 235.37188396006 164.10790707868 240.69988396006 164.10790707868 248.25188396006 C 164.10790707868 253.17988396006 163.38790707868 257.19588396006 161.94790707868 260.29988396006 C 160.50790707868 263.40388396006 158.02790707868 265.65988396006 154.50790707868 267.06788396006 L 165.35590707868 305.37188396006 L 151.14790707868 305.37188396006 L 141.83590707868 269.75588396006 L 135.11590707868 269.75588396006 L 135.11590707868 305.37188396006 L 121.00390707868 305.37188396006 L 121.00390707868 227.61188396006 Z M 139.62790707868 260.92388396006 C 143.65990707868 260.92388396006 146.52390707868 259.99588396006 148.21990707868 258.13988396006 C 149.91590707868 256.28388396006 150.76390707868 253.24388396006 150.76390707868 249.01988396006 C 150.76390707868 244.92388396006 150.01190707868 241.94788396006 148.50790707868 240.09188396006 C 147.00390707868 238.23588396006 144.29990707868 237.30788396006 140.39590707868 237.30788396006 L 135.11590707868 237.30788396006 L 135.11590707868 260.92388396006 L 139.62790707868 260.92388396006 Z M 182.63590707868 303.35588396006 C 179.43590707868 301.30788396006 177.19590707868 298.39588396006 175.91590707868 294.61988396006 C 174.63590707868 290.84388396006 173.99590707868 286.04388396006 173.99590707868 280.21988396006 L 173.99590707868 227.61188396006 L 187.81990707868 227.61188396006 L 187.81990707868 281.85188396006 C 187.81990707868 286.33188396006 188.34790707868 289.78788396006 189.40390707868 292.21988396006 C 190.45990707868 294.65188396006 192.61990707868 295.86788396006 195.88390707868 295.86788396006 C 199.21190707868 295.86788396006 201.40390707868 294.65188396006 202.45990707868 292.21988396006 C 203.51590707868 289.78788396006 204.04390707868 286.33188396006 204.04390707868 281.85188396006 L 204.04390707868 227.61188396006 L 217.77190707868 227.61188396006 L 217.77190707868 280.21988396006 C 217.77190707868 285.97988396006 217.13190707868 290.76388396006 215.85190707868 294.57188396006 C 214.57190707868 298.37988396006 212.33190707868 301.30788396006 209.13190707868 303.35588396006 C 205.93190707868 305.40388396006 201.51590707868 306.42788396006 195.88390707868 306.42788396006 C 190.25190707868 306.42788396006 185.83590707868 305.40388396006 182.63590707868 303.35588396006 Z M 232.69990707868 299.65988396006 C 229.33990707868 295.14788396006 227.65990707868 288.76388396006 227.65990707868 280.50788396006 L 227.65990707868 252.76388396006 C 227.65990707868 244.25188396006 229.32390707868 237.78788396006 232.65190707868 233.37188396006 C 235.97990707868 228.95588396006 241.70790707868 226.74788396006 249.83590707868 226.74788396006 C 257.45190707868 226.74788396006 262.85990707868 228.66788396006 266.05990707868 232.50788396006 C 269.25990707868 236.34788396006 270.85990707868 241.88388396006 270.85990707868 249.11588396006 L 270.85990707868 255.64388396006 L 257.22790707868 255.64388396006 L 257.22790707868 248.92388396006 C 257.22790707868 246.17188396006 257.09990707868 244.01188396006 256.84390707868 242.44388396006 C 256.58790707868 240.87588396006 255.93190707868 239.59588396006 254.87590707868 238.60388396006 C 253.81990707868 237.61188396006 252.17190707868 237.11588396006 249.93190707868 237.11588396006 C 247.62790707868 237.11588396006 245.89990707868 237.64388396006 244.74790707868 238.69988396006 C 243.59590707868 239.75588396006 242.84390707868 241.16388396006 242.49190707868 242.92388396006 C 242.13990707868 244.68388396006 241.96390707868 246.97188396006 241.96390707868 249.78788396006 L 241.96390707868 283.48388396006 C 241.96390707868 287.89988396006 242.53990707868 291.08388396006 243.69190707868 293.03588396006 C 244.84390707868 294.98788396006 246.92390707868 295.96388396006 249.93190707868 295.96388396006 C 252.10790707868 295.96388396006 253.72390707868 295.45188396006 254.77990707868 294.42788396006 C 255.83590707868 293.40388396006 256.50790707868 292.04388396006 256.79590707868 290.34788396006 C 257.08390707868 288.65188396006 257.22790707868 286.39588396006 257.22790707868 283.57988396006 L 257.22790707868 276.57188396006 L 270.85990707868 276.57188396006 L 270.85990707868 282.81188396006 C 270.85990707868 290.29988396006 269.29190707868 296.10788396006 266.15590707868 300.23588396006 C 263.01990707868 304.36388396006 257.57990707868 306.42788396006 249.83590707868 306.42788396006 C 241.77190707868 306.42788396006 236.05990707868 304.17188396006 232.69990707868 299.65988396006 Z M 280.74790707868 227.61188396006 L 294.85990707868 227.61188396006 L 294.85990707868 295.67588396006 L 313.77190707868 295.67588396006 L 313.77190707868 305.37188396006 L 280.74790707868 305.37188396006 L 280.74790707868 227.61188396006 Z M 321.54790707868 227.61188396006 L 335.56390707868 227.61188396006 L 335.56390707868 305.37188396006 L 321.54790707868 305.37188396006 L 321.54790707868 227.61188396006 Z M 347.56390707868 227.61188396006 L 370.41190707868 227.61188396006 C 383.65990707868 227.61188396006 390.28390707868 234.97188396006 390.28390707868 249.69188396006 C 390.28390707868 263.77188396006 383.33990707868 270.81188396006 369.45190707868 270.81188396006 L 361.67590707868 270.81188396006 L 361.67590707868 305.37188396006 L 347.56390707868 305.37188396006 L 347.56390707868 227.61188396006 Z M 367.14790707868 260.82788396006 C 370.98790707868 260.82788396006 373.57990707868 260.01188396006 374.92390707868 258.37988396006 C 376.26790707868 256.74788396006 376.93990707868 253.81988396006 376.93990707868 249.59588396006 C 376.93990707868 246.52388396006 376.71590707868 244.17188396006 376.26790707868 242.53988396006 C 375.81990707868 240.90788396006 374.90790707868 239.67588396006 373.53190707868 238.84388396006 C 372.15590707868 238.01188396006 370.02790707868 237.59588396006 367.14790707868 237.59588396006 L 361.67590707868 237.59588396006 L 361.67590707868 260.82788396006 L 367.14790707868 260.82788396006 Z"/></svg>